<svg width="235" height="78" viewBox="0 0 235 78" fill="none" xmlns="http://www.w3.org/2000/svg">
<path d="M65.78 22V9.38H61.6V8H71.64V9.38H67.46V22H65.78ZM74.6109 22V7.6H76.2909V13.62C76.6243 13.02 77.0909 12.5467 77.6909 12.2C78.3043 11.8533 78.9709 11.68 79.6909 11.68C80.4643 11.68 81.1376 11.84 81.7109 12.16C82.2843 12.4667 82.7243 12.94 83.0309 13.58C83.3376 14.22 83.4909 15.0267 83.4909 16V22H81.8309V16.18C81.8309 15.1667 81.6176 14.4067 81.1909 13.9C80.7643 13.38 80.1443 13.12 79.3309 13.12C78.7576 13.12 78.2376 13.26 77.7709 13.54C77.3176 13.82 76.9576 14.22 76.6909 14.74C76.4243 15.26 76.2909 15.9 76.2909 16.66V22H74.6109ZM91.5348 22.24C90.5882 22.24 89.7482 22.02 89.0148 21.58C88.2948 21.14 87.7282 20.5267 87.3148 19.74C86.9015 18.94 86.6948 18.0133 86.6948 16.96C86.6948 15.8933 86.8948 14.9667 87.2948 14.18C87.7082 13.3933 88.2815 12.78 89.0148 12.34C89.7615 11.9 90.6148 11.68 91.5748 11.68C92.5615 11.68 93.3948 11.9 94.0748 12.34C94.7682 12.78 95.2948 13.36 95.6548 14.08C96.0282 14.7867 96.2148 15.5667 96.2148 16.42C96.2148 16.5533 96.2148 16.6933 96.2148 16.84C96.2148 16.9867 96.2082 17.1533 96.1948 17.34H87.9548V16.04H94.5748C94.5348 15.12 94.2282 14.4 93.6548 13.88C93.0948 13.36 92.3882 13.1 91.5348 13.1C90.9615 13.1 90.4282 13.2333 89.9348 13.5C89.4548 13.7533 89.0682 14.1333 88.7748 14.64C88.4815 15.1333 88.3348 15.7533 88.3348 16.5V17.06C88.3348 17.8867 88.4815 18.58 88.7748 19.14C89.0815 19.7 89.4748 20.12 89.9548 20.4C90.4482 20.68 90.9748 20.82 91.5348 20.82C92.2415 20.82 92.8215 20.6667 93.2748 20.36C93.7415 20.04 94.0748 19.6133 94.2748 19.08H95.9348C95.7748 19.68 95.4948 20.22 95.0948 20.7C94.6948 21.18 94.1948 21.56 93.5948 21.84C93.0082 22.1067 92.3215 22.24 91.5348 22.24ZM67.12 48.24C66.1067 48.24 65.2067 48.06 64.42 47.7C63.6333 47.34 63.02 46.8267 62.58 46.16C62.14 45.4933 61.9133 44.7 61.9 43.78H64.44C64.44 44.2467 64.5467 44.6667 64.76 45.04C64.9867 45.4 65.2933 45.6867 65.68 45.9C66.08 46.1133 66.56 46.22 67.12 46.22C67.6 46.22 68.0133 46.1467 68.36 46C68.72 45.84 68.9933 45.62 69.18 45.34C69.38 45.0467 69.48 44.7067 69.48 44.32C69.48 43.88 69.3733 43.52 69.16 43.24C68.96 42.9467 68.68 42.7 68.32 42.5C67.96 42.3 67.5467 42.1267 67.08 41.98C66.6133 41.82 66.12 41.6533 65.6 41.48C64.4933 41.1067 63.66 40.6333 63.1 40.06C62.54 39.4733 62.26 38.6933 62.26 37.72C62.26 36.9067 62.4533 36.2067 62.84 35.62C63.2267 35.0333 63.7667 34.58 64.46 34.26C65.1667 33.9267 65.98 33.76 66.9 33.76C67.8333 33.76 68.6467 33.9267 69.34 34.26C70.0467 34.5933 70.6 35.06 71 35.66C71.4133 36.2467 71.6267 36.9533 71.64 37.78H69.08C69.0667 37.4333 68.9733 37.1133 68.8 36.82C68.6267 36.5133 68.3733 36.2667 68.04 36.08C67.72 35.88 67.3267 35.78 66.86 35.78C66.46 35.7667 66.1 35.8333 65.78 35.98C65.4733 36.1133 65.2267 36.3133 65.04 36.58C64.8667 36.8333 64.78 37.1533 64.78 37.54C64.78 37.9133 64.86 38.2267 65.02 38.48C65.1933 38.72 65.44 38.9267 65.76 39.1C66.08 39.26 66.4533 39.4133 66.88 39.56C67.3067 39.7067 67.7733 39.8667 68.28 40.04C68.9733 40.2667 69.6 40.5467 70.16 40.88C70.7333 41.2 71.1867 41.62 71.52 42.14C71.8533 42.66 72.02 43.3333 72.02 44.16C72.02 44.88 71.8333 45.5533 71.46 46.18C71.0867 46.7933 70.54 47.2933 69.82 47.68C69.1 48.0533 68.2 48.24 67.12 48.24ZM79.9936 48.24C78.9936 48.24 78.1136 48.0267 77.3536 47.6C76.5936 47.16 76.0003 46.5467 75.5736 45.76C75.1469 44.9733 74.9336 44.0667 74.9336 43.04C74.9336 41.9733 75.1403 41.04 75.5536 40.24C75.9803 39.44 76.5736 38.8133 77.3336 38.36C78.1069 37.9067 79.0003 37.68 80.0136 37.68C81.0003 37.68 81.8603 37.9 82.5936 38.34C83.3269 38.78 83.8936 39.3733 84.2936 40.12C84.6936 40.8533 84.8936 41.68 84.8936 42.6C84.8936 42.7333 84.8936 42.88 84.8936 43.04C84.8936 43.2 84.8803 43.3667 84.8536 43.54H76.6536V42H82.4736C82.4469 41.2667 82.2003 40.6933 81.7336 40.28C81.2669 39.8533 80.6869 39.64 79.9936 39.64C79.5003 39.64 79.0469 39.7533 78.6336 39.98C78.2203 40.2067 77.8936 40.5467 77.6536 41C77.4136 41.44 77.2936 42 77.2936 42.68V43.26C77.2936 43.8867 77.4069 44.4267 77.6336 44.88C77.8736 45.3333 78.1936 45.68 78.5936 45.92C79.0069 46.1467 79.4669 46.26 79.9736 46.26C80.5336 46.26 80.9936 46.14 81.3536 45.9C81.7269 45.66 82.0003 45.34 82.1736 44.94H84.6136C84.4269 45.5667 84.1203 46.1333 83.6936 46.64C83.2669 47.1333 82.7403 47.5267 82.1136 47.82C81.4869 48.1 80.7803 48.24 79.9936 48.24ZM88.1095 48V33.6H90.5095V48H88.1095ZM94.6877 48V36.82C94.6877 36.0467 94.8143 35.4267 95.0677 34.96C95.3343 34.48 95.7143 34.1333 96.2077 33.92C96.701 33.7067 97.2877 33.6 97.9677 33.6H99.1677V35.64H98.3277C97.8877 35.64 97.5677 35.7333 97.3677 35.92C97.181 36.0933 97.0877 36.4 97.0877 36.84V48H94.6877ZM93.2477 39.94V37.92H99.3677V39.94H93.2477ZM111.354 48V34H113.754V48H111.354ZM102.514 48V34H104.914V48H102.514ZM104.554 41.84V39.88H111.814V41.84H104.554ZM122.236 48.24C121.236 48.24 120.356 48.0267 119.596 47.6C118.836 47.16 118.242 46.5467 117.816 45.76C117.389 44.9733 117.176 44.0667 117.176 43.04C117.176 41.9733 117.382 41.04 117.796 40.24C118.222 39.44 118.816 38.8133 119.576 38.36C120.349 37.9067 121.242 37.68 122.256 37.68C123.242 37.68 124.102 37.9 124.836 38.34C125.569 38.78 126.136 39.3733 126.536 40.12C126.936 40.8533 127.136 41.68 127.136 42.6C127.136 42.7333 127.136 42.88 127.136 43.04C127.136 43.2 127.122 43.3667 127.096 43.54H118.896V42H124.716C124.689 41.2667 124.442 40.6933 123.976 40.28C123.509 39.8533 122.929 39.64 122.236 39.64C121.742 39.64 121.289 39.7533 120.876 39.98C120.462 40.2067 120.136 40.5467 119.896 41C119.656 41.44 119.536 42 119.536 42.68V43.26C119.536 43.8867 119.649 44.4267 119.876 44.88C120.116 45.3333 120.436 45.68 120.836 45.92C121.249 46.1467 121.709 46.26 122.216 46.26C122.776 46.26 123.236 46.14 123.596 45.9C123.969 45.66 124.242 45.34 124.416 44.94H126.856C126.669 45.5667 126.362 46.1333 125.936 46.64C125.509 47.1333 124.982 47.5267 124.356 47.82C123.729 48.1 123.022 48.24 122.236 48.24ZM133.712 48.24C132.885 48.24 132.198 48.1 131.652 47.82C131.105 47.54 130.698 47.1667 130.432 46.7C130.165 46.2333 130.032 45.7267 130.032 45.18C130.032 44.54 130.192 43.9867 130.512 43.52C130.845 43.0533 131.332 42.6933 131.972 42.44C132.612 42.1733 133.398 42.04 134.332 42.04H136.872C136.872 41.5067 136.798 41.0667 136.652 40.72C136.505 40.36 136.278 40.0933 135.972 39.92C135.665 39.7467 135.272 39.66 134.792 39.66C134.245 39.66 133.778 39.7867 133.392 40.04C133.005 40.28 132.765 40.6533 132.672 41.16H130.312C130.392 40.44 130.632 39.8267 131.032 39.32C131.432 38.8 131.958 38.4 132.612 38.12C133.278 37.8267 134.005 37.68 134.792 37.68C135.738 37.68 136.545 37.8467 137.212 38.18C137.878 38.5 138.385 38.9667 138.732 39.58C139.092 40.18 139.272 40.9067 139.272 41.76V48H137.232L136.992 46.38C136.858 46.6467 136.685 46.8933 136.472 47.12C136.272 47.3467 136.038 47.5467 135.772 47.72C135.505 47.88 135.198 48.0067 134.852 48.1C134.518 48.1933 134.138 48.24 133.712 48.24ZM134.252 46.34C134.638 46.34 134.978 46.2733 135.272 46.14C135.578 45.9933 135.838 45.7933 136.052 45.54C136.278 45.2733 136.452 44.98 136.572 44.66C136.692 44.34 136.772 44 136.812 43.64V43.6H134.592C134.125 43.6 133.738 43.66 133.432 43.78C133.125 43.8867 132.905 44.0467 132.772 44.26C132.638 44.4733 132.572 44.72 132.572 45C132.572 45.28 132.638 45.52 132.772 45.72C132.905 45.92 133.098 46.0733 133.352 46.18C133.605 46.2867 133.905 46.34 134.252 46.34ZM142.836 48V33.6H145.236V48H142.836ZM153.294 48C152.614 48 152.021 47.8933 151.514 47.68C151.021 47.4667 150.634 47.1133 150.354 46.62C150.074 46.1267 149.934 45.46 149.934 44.62V39.94H148.214V37.92H149.934L150.214 35.26H152.334V37.92H155.074V39.94H152.334V44.62C152.334 45.1267 152.441 45.48 152.654 45.68C152.881 45.8667 153.254 45.96 153.774 45.96H155.014V48H153.294ZM158.332 48V33.6H160.732V39.48C161.066 38.9333 161.519 38.5 162.092 38.18C162.666 37.8467 163.312 37.68 164.032 37.68C164.859 37.68 165.559 37.8533 166.132 38.2C166.706 38.5333 167.139 39.0333 167.432 39.7C167.739 40.3533 167.892 41.1733 167.892 42.16V48H165.512V42.38C165.512 41.5133 165.326 40.8533 164.952 40.4C164.592 39.9467 164.039 39.72 163.292 39.72C162.812 39.72 162.379 39.84 161.992 40.08C161.606 40.3067 161.299 40.64 161.072 41.08C160.846 41.5067 160.732 42.0333 160.732 42.66V48H158.332ZM62.5 74V60H67.06C68.1667 60 69.0733 60.1867 69.78 60.56C70.5 60.92 71.0267 61.4067 71.36 62.02C71.7067 62.6333 71.88 63.3333 71.88 64.12C71.88 64.88 71.7067 65.5733 71.36 66.2C71.0267 66.8133 70.5067 67.3067 69.8 67.68C69.0933 68.0533 68.18 68.24 67.06 68.24H64.18V74H62.5ZM64.18 66.82H67.04C68.16 66.82 68.96 66.5733 69.44 66.08C69.92 65.5867 70.16 64.9333 70.16 64.12C70.16 63.2533 69.92 62.5867 69.44 62.12C68.96 61.64 68.16 61.4 67.04 61.4H64.18V66.82ZM78.9156 74.24C77.9823 74.24 77.1423 74.0267 76.3956 73.6C75.649 73.16 75.0623 72.5467 74.6356 71.76C74.209 70.96 73.9956 70.0333 73.9956 68.98C73.9956 67.9 74.209 66.9667 74.6356 66.18C75.0756 65.38 75.669 64.7667 76.4156 64.34C77.1756 63.9 78.0223 63.68 78.9556 63.68C79.9156 63.68 80.7623 63.9 81.4956 64.34C82.2423 64.7667 82.829 65.38 83.2556 66.18C83.6956 66.9667 83.9156 67.8933 83.9156 68.96C83.9156 70.0267 83.6956 70.96 83.2556 71.76C82.8156 72.5467 82.2223 73.16 81.4756 73.6C80.729 74.0267 79.8756 74.24 78.9156 74.24ZM78.9356 72.8C79.509 72.8 80.0423 72.66 80.5356 72.38C81.029 72.0867 81.429 71.6533 81.7356 71.08C82.0423 70.5067 82.1956 69.8 82.1956 68.96C82.1956 68.1067 82.0423 67.4 81.7356 66.84C81.4423 66.2667 81.049 65.84 80.5556 65.56C80.0756 65.2667 79.5423 65.12 78.9556 65.12C78.3956 65.12 77.8623 65.2667 77.3556 65.56C76.8623 65.84 76.4623 66.2667 76.1556 66.84C75.8623 67.4 75.7156 68.1067 75.7156 68.96C75.7156 69.8 75.8623 70.5067 76.1556 71.08C76.4623 71.6533 76.8556 72.0867 77.3356 72.38C77.829 72.66 78.3623 72.8 78.9356 72.8ZM91.7111 74.24C90.7378 74.24 89.8844 74.0133 89.1511 73.56C88.4178 73.0933 87.8511 72.46 87.4511 71.66C87.0511 70.86 86.8511 69.9533 86.8511 68.94C86.8511 67.9267 87.0511 67.0267 87.4511 66.24C87.8511 65.44 88.4178 64.8133 89.1511 64.36C89.8978 63.9067 90.7578 63.68 91.7311 63.68C92.5578 63.68 93.2778 63.8467 93.8911 64.18C94.5178 64.5133 94.9978 64.98 95.3311 65.58V59.6H97.0111V74H95.4911L95.3511 72.34C95.1378 72.6733 94.8644 72.9867 94.5311 73.28C94.1978 73.56 93.7978 73.7933 93.3311 73.98C92.8644 74.1533 92.3244 74.24 91.7111 74.24ZM91.9111 72.78C92.5778 72.78 93.1644 72.62 93.6711 72.3C94.1778 71.98 94.5711 71.54 94.8511 70.98C95.1311 70.4067 95.2711 69.7333 95.2711 68.96C95.2711 68.2 95.1311 67.5333 94.8511 66.96C94.5711 66.3867 94.1778 65.94 93.6711 65.62C93.1644 65.3 92.5778 65.14 91.9111 65.14C91.2578 65.14 90.6778 65.3 90.1711 65.62C89.6644 65.94 89.2711 66.3867 88.9911 66.96C88.7111 67.5333 88.5711 68.2 88.5711 68.96C88.5711 69.7333 88.7111 70.4067 88.9911 70.98C89.2711 71.54 89.6644 71.98 90.1711 72.3C90.6778 72.62 91.2578 72.78 91.9111 72.78ZM105.35 74.24C104.403 74.24 103.55 74.02 102.79 73.58C102.043 73.14 101.457 72.5267 101.03 71.74C100.603 70.94 100.39 70.02 100.39 68.98C100.39 67.9133 100.603 66.9867 101.03 66.2C101.457 65.4133 102.043 64.8 102.79 64.36C103.55 63.9067 104.403 63.68 105.35 63.68C106.55 63.68 107.55 63.9933 108.35 64.62C109.15 65.2333 109.657 66.06 109.87 67.1H108.15C108.017 66.4733 107.69 65.9867 107.17 65.64C106.65 65.2933 106.037 65.12 105.33 65.12C104.757 65.12 104.223 65.2667 103.73 65.56C103.237 65.84 102.843 66.2667 102.55 66.84C102.257 67.4133 102.11 68.12 102.11 68.96C102.11 69.5867 102.197 70.1467 102.37 70.64C102.543 71.12 102.777 71.52 103.07 71.84C103.363 72.16 103.703 72.4067 104.09 72.58C104.49 72.74 104.903 72.82 105.33 72.82C105.81 72.82 106.243 72.7467 106.63 72.6C107.017 72.44 107.343 72.2067 107.61 71.9C107.877 71.5933 108.057 71.2333 108.15 70.82H109.87C109.657 71.8333 109.143 72.66 108.33 73.3C107.53 73.9267 106.537 74.24 105.35 74.24ZM116.535 74.24C115.722 74.24 115.042 74.1 114.495 73.82C113.949 73.5267 113.542 73.1467 113.275 72.68C113.009 72.2 112.875 71.68 112.875 71.12C112.875 70.44 113.049 69.8667 113.395 69.4C113.755 68.92 114.255 68.56 114.895 68.32C115.549 68.0667 116.315 67.94 117.195 67.94H119.855C119.855 67.3133 119.755 66.7933 119.555 66.38C119.369 65.9533 119.089 65.6333 118.715 65.42C118.355 65.2067 117.902 65.1 117.355 65.1C116.715 65.1 116.162 65.26 115.695 65.58C115.229 65.9 114.942 66.3733 114.835 67H113.115C113.195 66.28 113.435 65.68 113.835 65.2C114.249 64.7067 114.769 64.3333 115.395 64.08C116.022 63.8133 116.675 63.68 117.355 63.68C118.289 63.68 119.062 63.8533 119.675 64.2C120.302 64.5333 120.769 65.0067 121.075 65.62C121.382 66.22 121.535 66.9333 121.535 67.76V74H120.035L119.935 72.22C119.802 72.5 119.629 72.7667 119.415 73.02C119.215 73.26 118.975 73.4733 118.695 73.66C118.415 73.8333 118.095 73.9733 117.735 74.08C117.389 74.1867 116.989 74.24 116.535 74.24ZM116.795 72.82C117.262 72.82 117.682 72.7267 118.055 72.54C118.442 72.34 118.769 72.0733 119.035 71.74C119.302 71.3933 119.502 71.0133 119.635 70.6C119.782 70.1867 119.855 69.7533 119.855 69.3V69.24H117.335C116.682 69.24 116.155 69.32 115.755 69.48C115.355 69.6267 115.069 69.84 114.895 70.12C114.722 70.3867 114.635 70.6933 114.635 71.04C114.635 71.4 114.715 71.7133 114.875 71.98C115.049 72.2467 115.295 72.4533 115.615 72.6C115.949 72.7467 116.342 72.82 116.795 72.82ZM128.934 74.24C128.094 74.24 127.361 74.1 126.734 73.82C126.121 73.54 125.628 73.1533 125.254 72.66C124.894 72.1533 124.674 71.56 124.594 70.88H126.314C126.381 71.2267 126.521 71.5467 126.734 71.84C126.948 72.1333 127.234 72.3733 127.594 72.56C127.968 72.7333 128.421 72.82 128.954 72.82C129.421 72.82 129.808 72.7533 130.114 72.62C130.421 72.4733 130.648 72.28 130.794 72.04C130.954 71.8 131.034 71.54 131.034 71.26C131.034 70.8467 130.934 70.5333 130.734 70.32C130.548 70.1067 130.268 69.94 129.894 69.82C129.521 69.6867 129.068 69.5733 128.534 69.48C128.094 69.4 127.661 69.2933 127.234 69.16C126.808 69.0267 126.428 68.8533 126.094 68.64C125.761 68.4133 125.494 68.14 125.294 67.82C125.108 67.5 125.014 67.1067 125.014 66.64C125.014 66.0667 125.161 65.56 125.454 65.12C125.748 64.6667 126.168 64.3133 126.714 64.06C127.274 63.8067 127.921 63.68 128.654 63.68C129.734 63.68 130.608 63.94 131.274 64.46C131.941 64.98 132.334 65.7333 132.454 66.72H130.794C130.728 66.2133 130.508 65.82 130.134 65.54C129.774 65.2467 129.274 65.1 128.634 65.1C128.008 65.1 127.528 65.2267 127.194 65.48C126.874 65.7333 126.714 66.0667 126.714 66.48C126.714 66.7467 126.801 66.9867 126.974 67.2C127.161 67.4 127.428 67.5733 127.774 67.72C128.134 67.8667 128.574 67.9867 129.094 68.08C129.761 68.2 130.368 68.36 130.914 68.56C131.461 68.76 131.901 69.06 132.234 69.46C132.581 69.8467 132.754 70.4 132.754 71.12C132.754 71.7467 132.594 72.2933 132.274 72.76C131.968 73.2267 131.528 73.5933 130.954 73.86C130.381 74.1133 129.708 74.24 128.934 74.24ZM139.684 74C139.084 74 138.564 73.9067 138.124 73.72C137.684 73.5333 137.344 73.22 137.104 72.78C136.878 72.3267 136.764 71.72 136.764 70.96V65.34H135.004V63.92H136.764L136.984 61.48H138.444V63.92H141.364V65.34H138.444V70.96C138.444 71.5867 138.571 72.0133 138.824 72.24C139.078 72.4533 139.524 72.56 140.164 72.56H141.244V74H139.684Z" fill="#007687"/>
<path d="M0.0526942 51.4081C-0.188497 49.443 0.445491 47.3993 0.996784 45.3413C1.25176 44.3838 1.74792 43.9264 2.75403 43.9693C3.98066 44.0193 5.20729 43.9979 6.4408 43.7406C7.74323 43.4762 8.13603 44.005 8.10157 45.8201C8.0809 46.9134 8.45302 47.7566 9.46602 48.0567C10.4101 48.3283 11.1544 47.8209 11.7057 47.0134C12.0364 46.5275 11.8848 46.0059 11.8366 45.4699C11.7194 44.0908 12.2432 43.6549 13.5594 43.7692C15.9988 43.9764 18.4521 44.1122 20.8985 44.2837C21.5945 44.3337 21.8701 44.0122 22.0148 43.2904C22.387 41.454 23.6549 40.282 25.1227 40.2749C26.4596 40.2749 27.7621 41.2896 28.1411 43.0189C28.3892 44.1551 28.9611 44.1908 29.857 44.3409C33.2268 44.9054 36.6379 44.3409 40.0077 44.9054C41.0758 45.0841 41.6202 45.4342 41.572 46.5775C41.5306 47.5994 42.0612 48.1711 42.9846 48.3783C43.9287 48.5927 44.6454 47.9781 44.7832 47.2421C45.1691 45.1984 46.5129 45.1984 48.0014 45.2984C48.408 45.327 48.8215 45.3485 49.2211 45.4271C52.1085 45.9844 52.3015 46.0202 51.8467 49.0143C50.7992 55.96 48.6974 62.477 43.9218 67.7578C40.2075 71.8667 36.0315 75.2324 30.6288 76.5615C22.9451 78.448 15.8335 76.9903 9.37644 72.3097C5.99977 69.8658 3.67745 66.543 2.26476 62.5056C1.03124 58.9827 -0.112694 55.4527 0.0595853 51.4081H0.0526942ZM0.741811 51.8583C0.803831 55.4741 1.71346 58.9041 3.05035 62.2126C3.87729 64.2706 4.6491 66.4001 6.15827 68.0579C11.6161 74.0533 18.1971 77.0045 26.2667 76.4472C30.8286 76.1328 34.7221 74.3677 38.3676 71.7452C40.4005 70.2803 42.1095 68.4724 43.7702 66.5502C48.2357 61.398 50.0963 55.1883 51.0335 48.5426C51.2403 47.0992 50.8888 46.2274 49.2211 46.2131C48.4218 46.2131 47.6086 45.8987 47.2641 46.8705C46.9402 47.778 46.4578 48.7856 47.4639 49.6645C47.8498 50.0004 48.6423 50.3434 48.091 51.0294C47.5328 51.7297 46.9815 51.0723 46.506 50.715C45.1347 49.686 43.9701 50.1576 43.7151 51.8583C43.6462 52.3085 43.7565 52.9302 43.0536 52.8802C42.5505 52.8444 42.4885 52.3657 42.4058 51.9298C41.9854 49.6788 41.0138 49.2286 39.2221 50.4577C38.8017 50.7436 38.3676 50.9579 37.9817 50.5078C37.6647 50.1433 37.8025 49.7003 38.085 49.343C38.3124 49.0571 38.5467 48.757 38.8224 48.5284C39.5322 47.9353 39.5942 47.2492 39.3117 46.3917C39.0084 45.4699 38.3262 45.377 37.5889 45.3913C34.6601 45.4342 31.7314 45.3127 28.8095 45.0698C27.9757 44.9983 27.3624 45.0555 27.4589 43.7907C27.5553 42.5044 26.2529 41.2467 25.1572 41.2253C24.1373 41.211 22.7522 42.4044 22.828 43.5691C22.9176 45.0055 22.1044 44.9983 21.2086 45.0412C19.4582 45.1412 17.7216 44.9483 15.9851 44.7482C15.4613 44.691 14.5379 44.5624 14.5379 45.2341C14.5379 46.7276 13.201 48.264 14.6137 49.7503C14.91 50.0647 15.1512 50.6435 14.6895 51.0437C14.2209 51.4439 13.8557 51.0223 13.4974 50.7078C12.5533 49.8718 10.5893 50.5721 10.3619 51.8512C10.2585 52.43 10.3136 53.1589 9.51426 53.0874C8.7838 53.0159 8.99053 52.3442 8.97675 51.8226C8.92851 50.3791 7.43313 50.4506 6.76469 49.6431C6.46148 49.2787 6.12381 49.6145 5.83438 49.8646C5.31065 50.3148 4.70423 51.2938 4.07713 50.5149C3.47071 49.7717 4.46304 49.15 4.91096 48.5569C5.00055 48.4355 5.17972 48.3783 5.26241 48.2497C5.85505 47.3207 5.79992 46.2202 5.47604 45.327C5.08324 44.2337 3.9462 44.8554 3.13304 44.7482C2.14072 44.6196 1.80994 45.3413 1.59631 46.1774C1.11393 48.0353 0.645334 49.8932 0.755593 51.8512H0.741811V51.8583Z" fill="#027788"/>
<path d="M31.6545 0.0434373C33.2946 0.150625 34.9485 -0.163792 36.5817 0.214938C37.7807 0.493626 38.4285 1.06529 37.8979 2.47302C37.5602 3.36626 37.381 4.31665 37.0847 5.22418C36.8022 6.08882 36.9951 6.6462 37.8565 6.98205C38.5801 7.26074 39.2692 7.65376 39.7309 8.33976C40.551 9.5617 40.5923 12.0413 38.4354 12.5987C38.3389 12.6273 38.2355 12.6559 38.1391 12.6844C36.1337 13.3776 35.1138 14.8711 35.0656 17.1577C35.0243 19.1371 34.8106 19.3587 32.9156 19.3872C32.5572 19.3872 32.192 19.3515 31.8336 19.3944C30.5037 19.5587 29.408 19.6731 29.9317 17.5651C30.166 16.6289 29.5389 15.6928 28.3881 15.5642C27.2372 15.4356 25.8108 16.4574 25.8866 17.6437C25.9968 19.3301 25.1906 19.5087 23.9502 19.3872C23.6952 19.3587 23.4333 19.3872 23.1783 19.3872C20.2909 19.3872 19.8499 18.8442 20.5528 15.9001C20.7802 14.9425 20.539 14.5781 19.6432 14.5852C18.3132 14.5995 17.314 14.1708 17.0728 12.6416C16.7833 10.7908 17.3346 9.41164 18.7267 8.68991C19.2228 8.43266 19.8155 8.08966 20.3185 8.14683C22.0758 8.3612 22.0758 7.28218 21.9931 6.01022C21.9173 4.8383 22.0206 3.64494 21.8484 2.49446C21.6623 1.26538 22.1791 0.858064 23.2128 0.679418C26.0106 0.200646 28.8153 -0.120917 31.6545 0.0434373ZM32.5365 18.6226C34.4316 19.1014 34.3765 17.4007 34.2593 16.3931C33.9355 13.5848 34.8658 12.1485 37.6429 11.9556C38.5181 11.8912 39.2348 11.3267 39.2968 10.1691C39.3657 8.94002 38.7248 8.40408 37.8152 7.81812C37.1605 7.39651 35.8994 8.08966 35.8443 6.83914C35.8098 6.03166 36.2233 5.20274 36.4576 4.38811C36.561 4.03082 36.7195 3.69496 36.8366 3.33767C37.4982 1.30111 37.3604 0.936668 35.3481 0.858064C31.5511 0.708001 27.7541 0.700855 23.9777 1.37256C22.9992 1.54406 22.6615 1.92994 22.6822 2.91607C22.7235 4.5739 22.6822 6.23174 22.6822 7.88958C22.6822 8.74708 22.3928 9.18297 21.4693 9.03291C20.353 8.84712 19.3124 9.16154 18.4648 9.94758C17.6861 10.6693 17.5896 11.6054 17.9342 12.5915C18.2305 13.4276 18.7818 13.8706 19.6983 13.8421C21.7519 13.7706 21.745 13.7849 21.3522 16.0144C21.2626 16.536 21.2006 17.0648 21.173 17.5936C21.1523 17.9724 21.2075 18.4083 21.6209 18.5226C22.5788 18.7798 23.5711 18.7727 24.5221 18.5512C25.2526 18.3797 24.9907 17.5793 25.1492 17.0577C25.5558 15.7071 26.9409 14.5638 28.0986 14.6495C29.5733 14.7567 30.5657 15.6428 30.6759 17.3078C30.7655 18.6512 31.4753 18.737 32.5228 18.6441L32.5365 18.6226Z" fill="#027788"/>
<path d="M53.0124 37.6807C53.2054 38.9813 52.599 40.5033 52.3647 42.0754C52.2062 43.1402 51.6204 43.5403 50.6488 43.4188C50.0906 43.3474 49.5324 43.2473 48.9811 43.1259C47.3962 42.7686 46.0731 42.3898 44.9016 44.4193C43.8541 46.2343 41.2286 45.4697 40.6842 43.1616C40.2569 41.368 39.3128 40.8178 37.8174 40.5033C36.2049 40.1746 34.6406 39.603 33.0281 39.3171C31.9944 39.1313 31.9117 38.7097 32.1667 37.8022C32.6284 36.1658 33.0832 34.5223 33.3726 32.8501C33.5656 31.7425 34.1169 31.4424 35.0679 31.471C35.6329 31.4924 36.2049 31.5067 36.7631 31.4424C38.4032 31.2566 39.0096 29.7846 37.969 28.4554C37.5556 27.9267 37.0456 27.4264 36.4805 27.0834C35.378 26.426 35.4538 25.6043 36.0119 24.6681C36.4185 23.9893 36.9354 23.3819 37.3075 22.6816C38.603 20.2377 38.5961 20.2735 41.0632 21.4311C43.8334 22.7316 46.521 24.1536 48.7744 26.3117C51.8754 29.2844 53.2468 32.9788 53.0193 37.6736L53.0124 37.6807ZM52.3302 37.4163C52.2475 34.115 51.5515 31.4567 49.9803 29.0486C48.0853 26.133 45.2737 24.5252 42.3518 23.0389C40.0433 21.867 38.2585 22.4101 36.9974 24.6753C36.5908 25.4042 36.3772 25.983 37.3557 26.4618C38.1206 26.8333 38.541 27.648 38.92 28.3983C39.9192 30.3705 38.9683 32.0641 36.8182 32.207C36.3083 32.2427 35.7914 32.2213 35.2746 32.2427C34.7026 32.257 34.3167 32.5 34.172 33.136C33.8688 34.4865 33.5794 35.8442 33.1728 37.1591C32.8696 38.1452 33.2279 38.4811 34.0893 38.6954C35.9844 39.1671 37.8588 39.7387 39.7538 40.2032C40.8013 40.4605 41.4973 40.782 41.3113 42.1755C41.1665 43.2759 41.835 44.1334 42.8824 44.455C43.7576 44.7194 44.6466 44.1763 44.7431 43.4403C45.0738 40.9678 46.5416 41.8325 47.8579 42.0969C48.6641 42.2612 49.4773 42.3898 50.2767 42.5756C50.9589 42.74 51.5102 42.4899 51.5377 41.811C51.6067 40.1675 52.7644 38.7097 52.3371 37.4163H52.3302Z" fill="#027788"/>
<path d="M1.58789 39.4614C2.06338 32.7872 3.80685 26.2416 9.1475 21.2681C9.67812 20.775 10.2363 20.2962 10.8289 19.8746C12.7998 18.4669 12.8687 18.4883 13.8197 20.8322C14.4192 22.3042 14.943 23.812 15.5425 25.284C15.8939 26.1487 15.9629 26.799 14.9292 27.1777C14.3365 27.3992 13.93 27.928 13.5785 28.4568C13.0341 29.2786 12.917 30.1861 13.5578 30.9793C14.116 31.6796 14.9774 32.0154 15.7768 31.6081C17.1757 30.9007 17.5272 31.5652 17.8579 32.8443C18.7193 36.2315 18.7676 36.2172 15.4185 36.7031C15.1152 36.746 14.8051 36.7603 14.5019 36.8317C12.3795 37.3534 12.3588 37.3605 12.8618 39.5686C13.1513 40.8334 12.9445 42.0196 11.9591 42.7413C10.8634 43.5488 9.55408 43.9347 8.18273 43.2844C7.62455 43.02 7.22486 42.5555 7.21797 41.941C7.1973 40.4833 6.54264 40.7262 5.66057 41.1835C4.93011 41.5623 4.1514 41.8695 3.36581 42.1125C1.78084 42.5984 1.62235 42.4484 1.59478 40.6833V39.4471V39.4614H1.58789ZM15.2737 32.5299C14.3848 32.5299 13.0892 32.3441 12.6069 31.0507C12.1107 29.7359 12.0487 27.9852 13.3649 27.2706C15.3771 26.1773 14.6191 24.9625 14.0196 23.5762C13.6612 22.7544 13.3098 21.9183 13.0203 21.068C12.6964 20.1247 12.2899 19.9818 11.4216 20.5321C9.0717 22.0255 7.46605 24.205 6.03269 26.556C3.57944 30.5863 2.64913 35.0881 2.32525 39.7615C2.21499 41.4051 2.49752 41.548 3.9998 40.962C4.81985 40.6405 5.61233 40.2689 6.42549 39.9259C7.31445 39.5471 7.8175 39.6186 7.90709 40.8548C8.02424 42.4912 8.71335 42.9557 10.1398 42.6556C11.9246 42.284 12.6206 40.7477 11.6903 38.8111C11.0081 37.3891 11.332 36.8389 12.7723 36.503C14.1229 36.1957 15.4391 35.7313 16.8311 35.6384C17.1206 35.6169 17.4651 35.7027 17.603 35.2954C17.9544 34.2664 16.6658 32.4513 15.2669 32.5228L15.2737 32.5299Z" fill="#027788"/>
<path d="M22.987 64.9356C20.2788 64.9499 18.0598 62.0844 18.6042 59.3332C18.7352 58.6687 19.1004 58.4472 19.6793 58.4472C20.2926 58.4472 20.9748 58.3471 21.1264 59.2403C21.3676 60.6266 21.8431 62.1273 23.3385 62.0915C24.7994 62.0558 25.2129 60.5123 25.523 59.176C25.6815 58.4972 26.0191 57.9898 26.8323 58.2256C27.611 58.4543 28.2794 58.7258 28.2243 59.812C28.0589 62.8633 25.9709 64.9213 22.9801 64.9356H22.987Z" fill="#027788"/>
</svg>
