<svg width="348" height="293" viewBox="0 0 348 293" fill="none" xmlns="http://www.w3.org/2000/svg">
<path d="M70.1359 199.463C69.3287 193.376 71.3577 186.547 73.0377 179.609C74.2594 174.591 76.5939 171.951 82.201 172.606C85.5827 172.998 89.0517 172.824 92.5206 172.082C98.7386 170.773 100.506 172.3 100.266 178.911C100.135 182.598 101.204 185.456 104.433 187.071C107.357 188.51 110.084 187.245 112.353 185.216C114.142 183.58 114.687 181.594 114.382 178.998C113.64 172.562 115.233 171.602 121.909 172.235C130.636 173.064 139.428 173.282 148.177 173.762C150.86 173.915 151.668 172.475 152.17 169.987C153.435 163.704 157.951 159.624 163.362 159.319C168.205 159.035 173.529 162.788 174.881 168.831C175.929 173.456 178.503 173.391 182.169 174.002C194.364 176.031 206.713 173.936 218.909 175.965C223.054 176.642 225.345 177.733 225.149 182.205C224.996 185.565 226.807 187.507 230.014 188.401C233.549 189.361 235.294 187.136 237.105 184.78C238.741 182.663 237.781 178.714 240.748 177.973C244.785 176.947 249.083 177.209 253.272 177.733C253.468 177.754 253.642 177.864 253.817 177.885C263.94 179.805 265.075 180.656 263.417 190.954C259.359 216.131 251.439 239.738 233.33 258.784C219.498 273.315 204.051 285.293 184.067 289.962C155.355 296.681 128.803 291.423 104.804 274.493C95.3569 267.839 87.6335 259.395 82.5064 248.661C74.4776 231.905 70.1141 215.957 70.1141 199.419L70.1359 199.463ZM72.754 201.034C72.994 214.059 76.3975 226.407 81.3719 238.298C84.47 245.694 87.3281 253.352 92.9788 259.33C113.356 280.907 137.901 291.511 168.031 289.525C185.07 288.391 199.601 282.042 213.193 272.595C220.764 267.337 227.156 260.813 233.352 253.897C250.021 235.353 256.959 213.011 260.45 189.078C261.213 183.885 259.904 180.743 253.686 180.7C250.697 180.7 247.665 179.565 246.399 183.078C245.199 186.351 243.388 189.95 247.141 193.136C248.581 194.358 251.526 195.579 249.497 198.067C247.403 200.597 245.352 198.219 243.585 196.932C238.458 193.223 234.116 194.925 233.178 201.056C232.938 202.67 233.33 204.917 230.712 204.721C228.836 204.59 228.596 202.866 228.291 201.295C226.72 193.179 223.076 191.565 216.4 195.994C214.829 197.019 213.193 197.783 211.775 196.19C210.597 194.881 211.12 193.267 212.168 191.979C213.018 190.932 213.891 189.885 214.917 189.034C217.556 186.896 217.796 184.431 216.727 181.333C215.593 178.016 213.062 177.689 210.291 177.733C199.361 177.885 188.43 177.449 177.521 176.576C174.402 176.336 172.111 176.533 172.46 171.973C172.831 167.348 167.965 162.81 163.886 162.744C160.067 162.679 154.919 166.977 155.18 171.187C155.508 176.358 152.475 176.315 149.115 176.489C142.57 176.838 136.112 176.162 129.61 175.442C127.669 175.224 124.2 174.765 124.2 177.209C124.2 182.598 119.203 188.118 124.483 193.463C125.596 194.598 126.49 196.692 124.767 198.11C123.021 199.55 121.647 198.045 120.316 196.91C116.803 193.899 109.451 196.43 108.622 201.012C108.229 203.106 108.447 205.724 105.458 205.463C102.731 205.223 103.517 202.801 103.429 200.903C103.233 195.71 97.6696 195.972 95.1824 193.049C94.0479 191.718 92.7825 192.961 91.7134 193.834C89.7716 195.47 87.5026 198.961 85.1463 196.19C82.8773 193.507 86.5863 191.281 88.2662 189.143C88.6153 188.707 89.2698 188.489 89.5753 188.031C91.7788 184.692 91.5825 180.722 90.3607 177.493C88.8989 173.544 84.6445 175.791 81.6119 175.398C77.903 174.94 76.6594 177.536 75.8739 180.547C74.0849 187.245 72.3177 193.921 72.754 200.968V201.034Z" fill="#007687"/>
<path d="M188.341 14.5605C194.275 14.8441 200.253 13.8842 206.165 15.0623C210.856 16.0004 213.562 18.2476 211.336 23.5056C210.9 24.5529 210.703 25.7092 210.442 26.8437C209.7 30.0072 207.518 32.9526 208.064 36.247C208.718 40.1524 213.169 39.6942 215.591 41.7014C218.798 44.3631 220.499 47.5921 220.15 51.7374C219.779 56.0355 217.27 58.4136 213.234 59.8971C209.22 61.3807 203.395 60.2462 201.496 64.4352C199.882 67.9696 200.82 72.7476 200.886 76.9584C200.973 81.9546 199.075 84.66 193.729 84.1581C192.595 84.0491 191.417 84.0927 190.26 84.1581C185.024 84.5072 179.483 85.9035 181.621 76.7839C182.384 73.4894 179.483 70.0423 175.119 70.435C170.537 70.8495 166.37 73.2712 166.61 78.1147C166.872 83.9618 164.058 84.4418 159.716 84.1581C158.385 84.0709 157.032 84.1581 155.68 84.1581C146.015 84.1581 143.986 81.6491 146.582 71.9186C147.564 68.2314 146.756 66.7915 143.069 66.8569C138.619 66.9224 135.084 65.5479 133.862 60.7698C132.313 54.6828 134.321 48.8575 139.077 46.0431C141.564 44.5595 144.335 43.2504 147.236 43.5341C151.753 43.9704 152.364 41.7014 152.102 38.0579C151.731 32.8871 152.538 27.6946 151.469 22.5239C150.705 18.7931 153.018 17.3968 156.313 16.8513C166.938 15.1278 177.585 13.8842 188.406 14.5387L188.341 14.5605ZM191.744 81.4091C198.878 83.2636 198.246 76.8275 197.831 73.2712C196.718 63.5188 199.729 58.2608 210.027 57.5627C213.431 57.3445 216.441 55.3591 216.66 50.8865C216.878 46.4358 214.369 44.5813 211.031 42.4868C208.631 40.9596 203.875 43.5559 203.765 38.9088C203.7 35.9852 205.205 32.9962 206.1 30.0727C206.536 28.6109 207.191 27.1928 207.671 25.731C209.831 19.0113 209.438 17.8331 202.391 17.5059C187.839 16.8077 173.265 16.8731 158.822 19.404C155.614 19.9712 154.654 21.433 154.676 24.3783C154.742 30.1382 154.633 35.9198 154.676 41.7014C154.72 45.3013 154.087 47.5921 149.44 46.7849C145.818 46.1522 142.197 47.3521 139.251 49.8393C136.044 52.5447 135.586 55.9918 136.96 59.7662C138.4 63.737 141.564 65.0242 145.295 63.8679C150.422 62.2752 150.945 64.5879 150.095 68.6678C149.789 70.1732 149.396 71.6786 149.353 73.2058C149.265 76.1948 147.127 80.0128 151.884 81.3655C158.232 83.1545 162.4 81.2346 163.774 76.1948C165.214 70.915 170.385 66.726 174.988 67.0969C180.508 67.5551 184.086 70.675 184.522 76.7402C184.872 81.671 187.708 81.6928 191.744 81.431V81.4091Z" fill="#007687"/>
<path d="M267.822 150.004C268.564 154.694 266.295 160.149 265.422 165.821C264.833 169.661 262.652 171.101 259.008 170.665C256.914 170.425 254.841 170.054 252.79 169.596C246.878 168.309 241.925 166.934 237.562 174.243C233.656 180.766 223.86 178.017 221.809 169.727C220.217 163.269 216.704 161.283 211.097 160.171C205.097 158.971 199.228 156.942 193.207 155.916C189.345 155.262 189.04 153.734 190 150.462C191.723 144.571 193.425 138.659 194.494 132.615C195.214 128.623 197.287 127.554 200.821 127.663C202.937 127.728 205.054 127.794 207.148 127.554C213.257 126.877 215.526 121.597 211.664 116.819C210.115 114.921 208.217 113.11 206.101 111.889C201.977 109.532 202.261 106.565 204.334 103.205C205.839 100.762 207.781 98.5581 209.177 96.0491C214.021 87.2567 213.977 87.3876 223.184 91.5329C233.525 96.2019 243.54 101.329 251.961 109.096C263.546 119.787 268.651 133.095 267.822 150.004ZM265.182 148.76C265.204 138.571 263.11 130.106 258.659 122.339C249.67 106.631 234.18 99.7799 218.559 93.1038C216.202 92.1002 214.326 92.602 213.366 95.0019C211.577 99.4963 206.45 102.398 207.126 107.961C207.192 108.572 208.632 109.031 209.417 109.554C212.21 111.452 214.042 114.179 215.461 117.125C218.646 123.757 215.242 129.626 207.933 130.259C205.839 130.433 203.701 130.346 201.606 130.412C199.468 130.477 198.028 131.35 197.483 133.641C196.348 138.484 195.279 143.371 193.752 148.127C192.596 151.705 193.992 152.884 197.199 153.669C204.268 155.371 211.272 157.443 218.34 159.102C222.268 160.018 224.82 161.196 224.144 166.192C223.598 170.163 226.086 173.239 230.013 174.396C233.264 175.356 236.58 173.37 236.951 170.73C238.172 161.807 243.692 164.97 248.579 165.887C251.59 166.454 254.623 166.934 257.59 167.61C260.143 168.199 262.193 167.305 262.303 164.84C262.564 158.927 266.862 153.691 265.182 148.695V148.76Z" fill="#007687"/>
<path d="M75.8965 156.308C77.6637 132.462 84.1435 108.877 104.063 90.9651C106.332 88.9142 108.754 86.9943 111.263 85.2707C117.459 81.0381 117.808 81.0818 120.775 87.7143C123.502 93.845 125.793 100.172 128.367 106.368C129.458 108.986 129.044 110.841 126.273 111.888C124.004 112.739 122.433 114.441 121.037 116.273C118.877 119.088 118.048 122.273 120.23 125.349C122.455 128.447 125.815 129.604 129.327 127.989C133.909 125.873 135.305 127.793 136.44 132.004C139.887 144.789 140.018 144.745 126.971 146.556C125.64 146.73 124.353 147.123 123.044 147.298C117.502 148.039 115.43 150.025 117.59 156.286C121.124 166.453 112.463 172.279 102.71 170.926C99.3721 170.446 96.9285 168.461 96.7976 164.883C96.6231 160.41 94.6377 160.955 91.6487 162.417C88.7251 163.835 85.6707 165.079 82.5726 165.995C76.6601 167.784 76.0056 167.217 75.8965 160.934C75.8965 159.974 75.8965 159.014 75.8965 156.33V156.308ZM126.971 131.458C123.655 131.458 118.855 130.782 117.044 126.157C115.19 121.422 114.95 115.139 119.859 112.564C127.32 108.615 124.593 104.274 122.302 99.2775C120.95 96.3103 119.662 93.3213 118.571 90.2451C117.371 86.8852 115.866 86.2961 112.615 88.3033C102.666 94.4995 96.1213 103.554 90.4269 113.459C82.8999 126.549 80.1509 141.036 78.6673 155.785C77.8819 163.464 78.9727 164.119 85.9543 161.37C88.6379 160.323 91.2778 159.188 93.9395 158.097C97.2558 156.745 99.1321 156.985 99.4811 161.414C100.005 167.872 104.717 170.01 110.499 166.912C115.277 164.359 116.651 160.017 113.641 154.083C111.044 148.999 112.266 146.97 117.677 145.77C122.717 144.658 127.626 143 132.818 142.672C133.887 142.607 135.174 142.912 135.72 141.451C137.051 137.763 132.207 131.218 126.993 131.48L126.971 131.458Z" fill="#007687"/>
<path d="M155.769 248.095C145.667 248.139 137.399 237.841 139.428 227.914C139.929 225.514 141.282 224.707 143.442 224.729C145.733 224.729 148.285 224.358 148.853 227.587C149.747 232.583 151.536 237.972 157.122 237.841C162.576 237.732 164.103 232.168 165.281 227.347C165.87 224.903 167.136 223.071 170.168 223.921C173.092 224.75 175.579 225.732 175.361 229.616C174.75 240.59 166.961 248.008 155.769 248.052V248.095Z" fill="#007687"/>
<path d="M292.781 117.757C288.33 104.034 286.388 89.8741 282.505 75.9982C271.902 38.0359 247.03 14.1457 201.977 4.0879C152.822 -6.88628 90.0749 12.204 66.403 48.4428C55.7561 64.7404 51.7853 83.0452 49.9526 101.568C49.3854 107.35 49.0363 113.132 48.5781 118.913" stroke="#007687" stroke-width="2" stroke-linecap="round" stroke-linejoin="round"/>
<path d="M309.061 203.369C323.962 205.354 343.096 193.224 345.321 177.886C347.939 159.777 346.194 141.669 326.602 129.451C322.151 126.68 317.155 122.6 310.435 125.851" stroke="#007687" stroke-width="2" stroke-linecap="round" stroke-linejoin="round"/>
<path d="M32.3033 131.655C18.5801 130.935 13.5621 140.077 7.99867 147.909C-4.63363 165.69 0.340747 190.824 18.8419 203.282C22.8782 206.009 27.9834 207.907 33.6778 206.86" stroke="#007687" stroke-width="2" stroke-linecap="round" stroke-linejoin="round"/>
<path d="M309.058 127.029C306.003 149.741 308.229 172.54 307.814 195.296C307.487 212.357 307.923 212.422 287.349 213.688C285.473 213.797 284.164 217.004 280.586 212.008V123.56C297.364 116.447 300.789 116.731 309.08 125.873" stroke="#007687" stroke-width="2" stroke-linecap="round" stroke-linejoin="round"/>
<path d="M35.0301 132.811C35.4883 136.673 36.7973 140.622 36.2519 144.375C33.1756 164.796 38.5209 185.282 35.3573 205.747C34.6592 210.22 36.4919 216.198 45.9388 213.994C50.455 212.947 55.6476 214.234 60.1638 211.921C65.0073 185.784 60.2729 159.21 63.1528 132.79C63.72 127.619 60.6656 121.968 51.3714 120.986C40.659 119.852 37.0591 125.088 33.6992 131.677" stroke="#007687" stroke-width="2" stroke-linecap="round" stroke-linejoin="round"/>
</svg>
