<svg width="437" height="567" viewBox="0 0 437 567" fill="none" xmlns="http://www.w3.org/2000/svg">
<path d="M0.434031 376.585C-1.55261 362.203 3.66941 347.245 8.2103 332.183C10.3105 325.174 14.3973 321.827 22.6844 322.141C32.7879 322.507 42.8913 322.35 53.0516 320.467C63.7794 318.532 67.0148 322.403 66.731 335.687C66.5607 343.689 69.6258 349.86 77.9697 352.056C85.746 354.044 91.8762 350.331 96.4171 344.421C99.1416 340.864 97.8929 337.046 97.4955 333.124C96.5306 323.03 100.844 319.84 111.686 320.677C131.779 322.193 151.986 323.187 172.136 324.442C177.869 324.808 180.14 322.455 181.332 317.173C184.397 303.732 194.841 295.154 206.931 295.102C217.943 295.102 228.67 302.529 231.792 315.185C233.836 323.501 238.547 323.762 245.926 324.861C273.682 328.992 301.779 324.861 329.535 328.992C338.333 330.3 342.817 332.862 342.42 341.23C342.079 348.709 346.45 352.893 354.056 354.41C361.832 355.979 367.735 351.481 368.87 346.094C372.049 331.137 383.117 331.137 395.378 331.869C398.727 332.078 402.132 332.235 405.425 332.81C429.207 336.89 430.797 337.151 427.051 359.065C418.423 409.9 401.111 457.597 361.775 496.247C331.181 526.319 296.784 550.952 252.283 560.68C188.994 574.487 130.417 563.818 77.2318 529.562C49.4189 511.675 30.2904 487.356 18.6543 457.807C8.49411 432.023 -0.928235 406.187 0.490792 376.585H0.434031ZM6.11014 379.88C6.62099 406.344 14.1135 431.447 25.1251 455.662C31.9364 470.725 38.2937 486.31 50.7244 498.443C95.6792 542.323 149.886 563.923 216.353 559.843C253.929 557.542 285.999 544.624 316.026 525.43C332.77 514.709 346.847 501.477 360.527 487.408C397.308 449.7 412.633 404.252 420.353 355.613C422.056 345.048 419.161 338.668 405.425 338.563C398.84 338.563 392.142 336.262 389.304 343.375C386.637 350.017 382.663 357.391 390.95 363.824C394.129 366.282 400.657 368.792 396.116 373.813C391.518 378.939 386.977 374.127 383.061 371.512C371.765 363.981 362.173 367.433 360.072 379.88C359.505 383.175 360.413 387.725 354.623 387.359C350.48 387.097 349.969 383.593 349.288 380.403C345.825 363.929 337.822 360.634 323.064 369.629C319.602 371.721 316.026 373.29 312.847 369.995C310.236 367.328 311.371 364.085 313.699 361.47C315.572 359.378 317.502 357.182 319.772 355.508C325.618 351.167 326.129 346.147 323.802 339.871C321.305 333.124 315.685 332.444 309.612 332.549C285.488 332.862 261.365 331.973 237.298 330.195C230.43 329.672 225.378 330.091 226.173 320.834C226.968 311.42 216.24 302.215 207.215 302.058C198.814 301.953 187.405 310.687 188.03 319.212C188.767 329.724 182.07 329.672 174.691 329.986C160.273 330.718 145.97 329.306 131.666 327.842C127.352 327.423 119.746 326.482 119.746 331.398C119.746 342.329 108.734 353.573 120.37 364.452C122.811 366.753 124.798 370.989 120.995 373.918C117.135 376.847 114.127 373.761 111.175 371.46C103.399 365.341 87.2218 370.466 85.3486 379.828C84.4972 384.064 84.9513 389.398 78.367 388.875C72.3504 388.353 74.0532 383.436 73.9397 379.618C73.5423 369.054 61.2252 369.577 55.7193 363.667C53.2219 361 50.4406 363.458 48.0566 365.288C43.7428 368.583 38.7478 375.748 33.5825 370.048C28.5875 364.608 36.7611 360.058 40.4506 355.717C41.1885 354.828 42.6643 354.41 43.3454 353.469C48.2269 346.67 47.7728 338.615 45.105 332.078C41.8696 324.076 32.5041 328.626 25.8062 327.842C17.6326 326.9 14.9081 332.183 13.1485 338.302C9.17524 351.9 5.31549 365.497 6.22366 379.828H6.11014V379.88Z" fill="#05798A"/>
<path d="M260.74 0.654827C274.249 1.43932 287.872 -0.861865 301.324 1.91002C311.201 3.94971 316.536 8.13369 312.166 18.4367C309.384 24.9742 307.908 31.9301 305.468 38.5721C303.141 44.9004 304.73 48.9798 311.825 51.4379C317.785 53.4776 323.461 56.3541 327.264 61.3748C334.019 70.3181 334.359 88.4661 316.593 92.5455C315.798 92.7547 314.947 92.9639 314.152 93.1731C297.635 98.2461 289.234 109.177 288.837 125.913C288.496 140.4 286.737 142.021 271.127 142.23C268.176 142.23 265.167 141.969 262.216 142.283C251.261 143.485 242.236 144.322 246.55 128.894C248.48 122.043 243.314 115.191 233.835 114.25C224.356 113.308 212.607 120.787 213.231 129.469C214.139 141.812 207.498 143.119 197.281 142.23C195.181 142.021 193.024 142.23 190.924 142.23C167.141 142.23 163.508 138.255 169.298 116.708C171.171 109.7 169.184 107.033 161.805 107.085C150.85 107.189 142.62 104.051 140.633 92.8593C138.25 79.3136 142.79 69.2198 154.256 63.9375C158.343 62.0547 163.224 59.5443 167.368 59.9627C181.842 61.5317 181.842 53.6345 181.161 44.3251C180.537 35.748 181.388 27.0139 179.969 18.5936C178.436 9.59808 182.693 6.617 191.208 5.3095C214.253 1.80542 237.354 -0.548067 260.74 0.654827ZM268.005 136.634C283.615 140.138 283.161 127.691 282.196 120.317C279.528 99.7628 287.191 89.2506 310.065 87.8385C317.274 87.3678 323.177 83.2361 323.688 74.7636C324.256 65.768 318.977 61.8455 311.484 57.5569C306.092 54.4713 295.705 59.5443 295.251 50.3919C294.967 44.482 298.373 38.4152 300.302 32.4531C301.154 29.8381 302.459 27.38 303.424 24.765C308.873 9.85958 307.738 7.1923 291.164 6.617C259.889 5.5187 228.613 5.4664 197.508 10.3826C189.448 11.6378 186.667 14.462 186.837 21.6793C187.178 33.8129 186.837 45.9464 186.837 58.0799C186.837 64.3559 184.453 67.5462 176.847 66.4479C167.652 65.0881 159.081 67.3893 152.099 73.1423C145.685 78.4245 144.891 85.2758 147.729 92.4932C150.169 98.6122 154.71 101.855 162.259 101.646C179.174 101.123 179.118 101.227 175.882 117.545C175.144 121.363 174.633 125.233 174.406 129.103C174.236 131.875 174.69 135.065 178.096 135.902C185.986 137.785 194.159 137.732 201.992 136.111C208.009 134.856 205.852 128.998 207.157 125.181C210.506 115.296 221.915 106.928 231.451 107.555C243.598 108.34 251.772 114.825 252.68 127.011C253.418 136.843 259.264 137.471 267.892 136.791L268.005 136.634Z" fill="#05798A"/>
<path d="M436.643 276.118C438.232 285.636 433.237 296.776 431.307 308.282C430.002 316.075 425.177 319.003 417.174 318.114C412.576 317.591 407.978 316.859 403.437 315.97C390.382 313.355 379.484 310.583 369.835 325.436C361.207 338.721 339.581 333.124 335.097 316.232C331.578 303.104 323.802 299.077 311.484 296.776C298.202 294.37 285.318 290.186 272.035 288.094C263.521 286.735 262.84 283.649 264.94 277.007C268.743 265.03 272.489 253.001 274.873 240.763C276.463 232.657 281.004 230.46 288.837 230.669C293.491 230.826 298.202 230.931 302.8 230.46C316.309 229.1 321.304 218.327 312.733 208.599C309.327 204.729 305.127 201.068 300.473 198.557C291.391 193.746 292.015 187.731 296.613 180.88C299.962 175.911 304.219 171.466 307.284 166.341C317.955 148.454 317.898 148.716 338.219 157.188C361.037 166.707 383.174 177.114 401.735 192.909C427.277 214.666 438.572 241.704 436.699 276.065L436.643 276.118ZM431.023 274.183C430.342 250.02 424.609 230.565 411.668 212.94C396.058 191.601 372.9 179.834 348.833 168.956C329.818 160.378 315.117 164.353 304.73 180.932C301.381 186.267 299.621 190.503 307.681 194.007C313.982 196.727 317.444 202.689 320.566 208.18C328.797 222.615 320.963 235.01 303.254 236.056C299.054 236.318 294.797 236.161 290.54 236.318C285.828 236.422 282.65 238.2 281.458 242.855C278.96 252.74 276.576 262.677 273.227 272.3C270.73 279.517 273.681 281.975 280.777 283.544C296.386 286.996 311.825 291.18 327.434 294.58C336.062 296.462 341.795 298.816 340.262 309.014C339.07 317.068 344.576 323.344 353.204 325.698C360.412 327.633 367.735 323.658 368.529 318.271C371.254 300.176 383.344 306.504 394.185 308.439C400.826 309.642 407.524 310.583 414.108 311.943C419.728 313.146 424.269 311.315 424.496 306.347C425.063 294.318 434.599 283.649 431.08 274.183H431.023Z" fill="#05798A"/>
<path d="M13.0917 289.14C17.0082 240.292 31.3687 192.385 75.3586 155.984C79.7292 152.376 84.3269 148.872 89.2083 145.786C105.442 135.483 106.01 135.64 113.843 152.794C118.781 163.568 123.095 174.603 128.033 185.377C130.928 191.705 131.495 196.464 122.981 199.236C118.1 200.858 114.751 204.728 111.856 208.598C107.372 214.612 106.407 221.254 111.686 227.06C116.283 232.185 123.379 234.643 129.963 231.662C141.485 226.484 144.38 231.348 147.105 240.71C154.2 265.5 154.597 265.395 127.011 268.952C124.514 269.266 121.959 269.37 119.462 269.893C101.98 273.711 101.809 273.763 105.953 289.924C108.337 299.181 106.634 307.863 98.5172 313.145C89.4921 319.055 78.7075 321.879 67.4121 317.12C62.8144 315.185 59.5223 311.785 59.4655 307.288C59.2952 296.618 53.9029 298.397 46.6375 301.744C40.6208 304.516 34.2068 306.765 27.736 308.543C14.681 312.099 13.3755 311.001 13.1484 298.083V289.035V289.14H13.0917ZM125.819 238.409C118.497 238.409 107.826 237.049 103.853 227.583C99.7659 217.96 99.255 205.146 110.096 199.916C126.671 191.914 120.427 183.023 115.489 172.877C112.537 166.863 109.642 160.744 107.258 154.52C104.591 147.616 101.242 146.57 94.0898 150.598C74.7342 161.528 61.5089 177.48 49.7026 194.686C29.4956 224.183 21.8329 257.132 19.1651 291.336C18.2569 303.365 20.5841 304.411 32.9581 300.122C39.7126 297.769 46.2402 295.049 52.938 292.539C60.2602 289.767 64.4037 290.29 65.1416 299.338C66.1066 311.315 71.7827 314.714 83.5322 312.518C98.2333 309.798 103.966 298.554 96.3035 284.38C90.6841 273.973 93.3519 269.946 105.215 267.487C116.34 265.239 127.182 261.839 138.647 261.159C141.031 261.002 143.869 261.63 145.005 258.649C147.899 251.118 137.285 237.834 125.762 238.357L125.819 238.409Z" fill="#05798A"/>
<path d="M189.335 475.589C167.027 475.694 148.75 454.721 153.235 434.586C154.313 429.722 157.321 428.101 162.089 428.101C167.141 428.101 172.76 427.369 174.009 433.906C175.996 444.052 179.912 455.035 192.229 454.774C204.263 454.512 207.668 443.215 210.223 433.435C211.528 428.467 214.309 424.754 221.007 426.479C227.421 428.153 232.927 430.14 232.473 438.09C231.111 460.422 213.912 475.484 189.278 475.589H189.335Z" fill="#05798A"/>
</svg>
