<svg width="528" height="327" viewBox="0 0 528 327" fill="none" xmlns="http://www.w3.org/2000/svg">
<path d="M0.169732 150.179C-0.607163 144.438 1.43496 138.468 3.21072 132.456C4.03201 129.659 5.6302 128.323 8.87096 128.448C12.822 128.594 16.7731 128.531 20.7464 127.78C24.9416 127.007 26.2068 128.552 26.0958 133.855C26.0292 137.048 27.2279 139.512 30.4908 140.389C33.5318 141.182 35.9291 139.7 37.7049 137.341C38.7703 135.921 38.282 134.397 38.1266 132.832C37.7493 128.803 39.4362 127.529 43.6759 127.863C51.5336 128.469 59.4357 128.865 67.3157 129.366C69.5576 129.512 70.4455 128.573 70.9116 126.465C72.1102 121.1 76.1945 117.676 80.9224 117.655C85.2287 117.655 89.4239 120.62 90.6447 125.671C91.4438 128.991 93.2862 129.095 96.1718 129.533C107.026 131.183 118.014 129.533 128.868 131.183C132.309 131.704 134.062 132.727 133.907 136.067C133.774 139.053 135.483 140.723 138.457 141.328C141.498 141.954 143.807 140.159 144.251 138.009C145.494 132.038 149.822 132.038 154.617 132.331C155.926 132.414 157.258 132.477 158.545 132.706C167.846 134.335 168.467 134.439 167.002 143.186C163.628 163.477 156.858 182.515 141.476 197.942C129.512 209.945 116.06 219.778 98.6579 223.66C73.9082 229.172 51.0009 224.913 30.2023 211.24C19.3258 204.1 11.8454 194.393 7.29497 182.599C3.32171 172.307 -0.362996 161.995 0.191929 150.179H0.169732ZM2.38943 151.494C2.58921 162.057 5.51921 172.077 9.82543 181.743C12.4891 187.755 14.9751 193.976 19.8363 198.819C37.4163 216.333 58.6145 224.955 84.6072 223.326C99.3016 222.408 111.843 217.252 123.585 209.59C130.133 205.311 135.638 200.029 140.988 194.414C155.371 179.363 161.364 161.222 164.383 141.808C165.049 137.591 163.917 135.044 158.545 135.003C155.971 135.003 153.351 134.084 152.241 136.923C151.198 139.574 149.644 142.518 152.885 145.086C154.128 146.067 156.681 147.069 154.905 149.073C153.107 151.118 151.331 149.198 149.8 148.154C145.383 145.148 141.631 146.526 140.81 151.494C140.588 152.809 140.943 154.626 138.679 154.479C137.059 154.375 136.859 152.976 136.593 151.703C135.239 145.127 132.109 143.812 126.338 147.403C124.984 148.238 123.585 148.864 122.342 147.549C121.321 146.484 121.765 145.19 122.675 144.146C123.408 143.311 124.162 142.434 125.05 141.766C127.336 140.034 127.536 138.03 126.626 135.525C125.649 132.832 123.452 132.56 121.077 132.602C111.643 132.727 102.209 132.372 92.7979 131.663C90.112 131.454 88.1365 131.621 88.4472 127.926C88.758 124.168 84.5628 120.494 81.0334 120.432C77.7483 120.39 73.2867 123.876 73.5308 127.279C73.8194 131.475 71.2002 131.454 68.3145 131.579C62.6765 131.871 57.0829 131.308 51.4892 130.723C49.8022 130.556 46.8278 130.18 46.8278 132.143C46.8278 136.506 42.5216 140.994 47.072 145.336C48.0265 146.255 48.8034 147.945 47.3162 149.114C45.8068 150.283 44.6303 149.052 43.4761 148.133C40.4351 145.691 34.109 147.737 33.3765 151.473C33.0435 153.164 33.2211 155.294 30.6462 155.085C28.2933 154.876 28.9593 152.914 28.9149 151.39C28.7595 147.173 23.9427 147.382 21.7896 145.023C20.8129 143.958 19.7253 144.939 18.793 145.67C17.1061 146.985 15.1527 149.845 13.1328 147.57C11.1794 145.399 14.3758 143.582 15.8186 141.85C16.1072 141.495 16.6843 141.328 16.9507 140.952C18.8596 138.238 18.682 135.024 17.6388 132.414C16.3735 129.22 12.711 131.036 10.0918 130.723C6.89543 130.347 5.82997 132.456 5.14186 134.898C3.58807 140.326 2.07868 145.754 2.43383 151.473H2.38943V151.494Z" fill="#027788"/>
<path d="M101.965 0.126895C107.248 0.440025 112.576 -0.478491 117.836 0.627904C121.699 1.44204 123.785 3.11207 122.076 7.22452C120.988 9.83394 120.411 12.6104 119.457 15.2615C118.547 17.7875 119.168 19.4157 121.943 20.3969C124.273 21.211 126.493 22.3592 127.98 24.3632C130.622 27.9329 130.755 35.1766 123.807 36.8049C123.497 36.8884 123.164 36.9719 122.853 37.0554C116.393 39.0803 113.108 43.4433 112.953 50.1234C112.82 55.9059 112.132 56.553 106.027 56.6365C104.873 56.6365 103.697 56.5321 102.543 56.6574C98.2585 57.1375 94.7292 57.4715 96.4162 51.3133C97.1709 48.5786 95.151 45.844 91.4441 45.4682C87.7372 45.0924 83.1424 48.0776 83.3865 51.5429C83.7417 56.4695 81.1446 56.9914 77.1492 56.6365C76.3279 56.553 75.4844 56.6365 74.6631 56.6365C65.3626 56.6365 63.942 55.05 66.2061 46.4493C66.9386 43.652 66.1617 42.5874 63.2761 42.6083C58.992 42.65 55.7735 41.3975 54.9966 36.9302C54.0643 31.5235 55.8401 27.4945 60.3239 25.3861C61.922 24.6346 63.831 23.6326 65.4514 23.7996C71.1116 24.4258 71.1116 21.2736 70.8452 17.5578C70.6011 14.1343 70.934 10.6481 70.3791 7.28715C69.7798 3.69658 71.4445 2.50669 74.7741 1.9848C83.7861 0.586153 92.8203 -0.353239 101.965 0.126895ZM104.807 54.4029C110.911 55.8015 110.733 50.8332 110.356 47.8897C109.313 39.6857 112.309 35.4898 121.255 34.9261C124.074 34.7383 126.382 33.0891 126.582 29.7073C126.804 26.1167 124.74 24.5511 121.81 22.8393C119.701 21.6077 115.639 23.6326 115.461 19.9794C115.35 17.6205 116.682 15.1989 117.437 12.8191C117.77 11.7754 118.28 10.7942 118.658 9.75044C120.788 3.80096 120.345 2.73632 113.863 2.50669C101.632 2.0683 89.4019 2.04743 77.238 4.00971C74.086 4.51072 72.9983 5.63799 73.0649 8.51879C73.1981 13.3619 73.0649 18.205 73.0649 23.0481C73.0649 25.5531 72.1327 26.8265 69.1583 26.3881C65.5623 25.8454 62.2106 26.7639 59.4804 29.0602C56.9721 31.1686 56.6613 33.9032 57.7712 36.784C58.7257 39.2265 60.5014 40.5207 63.4536 40.4372C70.0683 40.2285 70.0461 40.2702 68.7809 46.7834C68.4923 48.3073 68.2926 49.852 68.2038 51.3968C68.1372 52.5032 68.3148 53.7766 69.6466 54.1106C72.732 54.8621 75.9283 54.8412 78.9915 54.1941C81.3444 53.6931 80.5009 51.3551 81.0115 49.8312C82.3211 45.8857 86.7827 42.5457 90.5118 42.7962C95.2619 43.1093 98.4583 45.6978 98.8135 50.5618C99.102 54.4864 101.388 54.7369 104.762 54.4655L104.807 54.4029Z" fill="#027788"/>
<path d="M170.753 110.077C171.375 113.877 169.421 118.323 168.666 122.916C168.156 126.026 166.269 127.195 163.139 126.84C161.341 126.631 159.544 126.339 157.768 125.984C152.662 124.94 148.401 123.834 144.627 129.763C141.253 135.065 132.796 132.831 131.043 126.089C129.666 120.849 126.625 119.242 121.809 118.323C116.614 117.363 111.576 115.693 106.382 114.858C103.052 114.315 102.786 113.083 103.607 110.432C105.094 105.652 106.559 100.85 107.492 95.9655C108.113 92.7298 109.889 91.853 112.952 91.9365C114.772 91.9991 116.614 92.0409 118.412 91.853C123.695 91.3103 125.649 87.0099 122.297 83.1271C120.965 81.5823 119.323 80.1211 117.502 79.119C113.951 77.1985 114.195 74.7978 115.993 72.0632C117.303 70.08 118.967 68.3056 120.166 66.2598C124.339 59.1204 124.317 59.2248 132.263 62.6066C141.187 66.4059 149.843 70.5601 157.102 76.8645C167.09 85.5487 171.508 96.3412 170.775 110.056L170.753 110.077ZM168.555 109.305C168.289 99.6604 166.047 91.8948 160.986 84.8598C154.882 76.3426 145.826 71.6457 136.414 67.3036C128.978 63.88 123.229 65.4665 119.167 72.084C117.858 74.2133 117.169 75.9042 120.321 77.3029C122.785 78.3884 124.139 80.7682 125.36 82.9601C128.579 88.7217 125.515 93.6692 118.59 94.0867C116.947 94.1911 115.283 94.1284 113.618 94.1911C111.776 94.2328 110.533 94.9426 110.066 96.8005C109.09 100.746 108.157 104.712 106.848 108.553C105.871 111.434 107.025 112.415 109.8 113.042C115.904 114.419 121.942 116.089 128.046 117.446C131.42 118.198 133.662 119.137 133.062 123.208C132.596 126.423 134.749 128.928 138.123 129.867C140.942 130.639 143.806 129.053 144.117 126.903C145.182 119.68 149.91 122.206 154.15 122.978C156.747 123.458 159.366 123.834 161.941 124.377C164.138 124.857 165.914 124.126 166.003 122.143C166.225 117.342 169.954 113.083 168.578 109.305H168.555Z" fill="#027788"/>
<path d="M5.12109 115.276C6.65269 95.7781 12.2685 76.6563 29.4712 62.127C31.1804 60.6866 32.9783 59.288 34.8873 58.0563C41.2356 53.9439 41.4576 54.0065 44.5208 60.8536C46.4519 65.1539 48.1389 69.5586 50.07 73.859C51.2021 76.3849 51.424 78.2845 48.0945 79.3909C46.1856 80.0381 44.8759 81.5829 43.7439 83.1276C41.9903 85.5283 41.613 88.1795 43.6773 90.4966C45.4753 92.5424 48.2499 93.5236 50.8247 92.3337C55.3307 90.267 56.4628 92.2084 57.5282 95.9451C60.3029 105.84 60.4582 105.798 49.6705 107.218C48.6938 107.343 47.695 107.385 46.7183 107.594C39.8816 109.117 39.815 109.138 41.4354 115.589C42.3677 119.284 41.7018 122.749 38.5276 124.857C34.9983 127.216 30.7808 128.344 26.3636 126.444C24.5657 125.672 23.2782 124.315 23.256 122.519C23.1895 118.261 21.0807 118.971 18.2395 120.307C15.8866 121.413 13.3784 122.311 10.8479 123.02C5.74261 124.44 5.23208 124.002 5.14329 118.845V115.234V115.276H5.12109ZM49.2043 95.0266C46.3409 95.0266 42.1679 94.4838 40.6141 90.7054C39.0159 86.8643 38.8161 81.7499 43.0558 79.6623C49.5373 76.4684 47.0956 72.9196 45.1645 68.8698C44.0102 66.4691 42.8782 64.0267 41.9459 61.5425C40.9027 58.7869 39.593 58.3694 36.7962 59.9768C29.227 64.3398 24.0551 70.7068 19.4382 77.5748C11.536 89.3485 8.53943 102.5 7.49617 116.152C7.14102 120.954 8.0511 121.371 12.89 119.66C15.5315 118.72 18.0841 117.635 20.7034 116.633C23.5668 115.526 25.1872 115.735 25.4757 119.346C25.8531 124.127 28.0728 125.484 32.6676 124.607C38.4166 123.521 40.6585 119.033 37.6619 113.376C35.4644 109.222 36.5077 107.614 41.1468 106.633C45.4975 105.736 49.7371 104.379 54.2209 104.107C55.1531 104.045 56.263 104.295 56.7069 103.105C57.839 100.099 53.6881 94.797 49.1822 95.0057L49.2043 95.0266Z" fill="#027788"/>
<path d="M74.0421 189.696C65.3186 189.738 58.1712 181.367 59.9248 173.33C60.3465 171.388 61.523 170.741 63.3875 170.741C65.363 170.741 67.5605 170.449 68.0489 173.058C68.8258 177.108 70.3574 181.492 75.1741 181.388C79.8799 181.283 81.2117 176.774 82.2106 172.871C82.7211 170.887 83.8087 169.405 86.428 170.094C88.9363 170.762 91.0894 171.555 90.9118 174.728C90.3791 183.642 83.6534 189.654 74.0199 189.696H74.0421Z" fill="#027788"/>
<path d="M179.17 251.179C178.393 245.438 180.435 239.468 182.211 233.456C183.032 230.659 184.63 229.323 187.871 229.448C191.822 229.594 195.773 229.531 199.746 228.78C203.942 228.007 205.207 229.552 205.096 234.855C205.029 238.048 206.228 240.512 209.491 241.389C212.532 242.182 214.929 240.7 216.705 238.341C217.77 236.921 217.282 235.397 217.127 233.832C216.749 229.803 218.436 228.529 222.676 228.863C230.534 229.469 238.436 229.865 246.316 230.366C248.558 230.512 249.445 229.573 249.912 227.465C251.11 222.1 255.194 218.676 259.922 218.655C264.229 218.655 268.424 221.62 269.645 226.671C270.444 229.991 272.286 230.095 275.172 230.533C286.026 232.183 297.014 230.533 307.868 232.183C311.309 232.704 313.062 233.727 312.907 237.067C312.774 240.053 314.483 241.723 317.457 242.328C320.498 242.954 322.807 241.159 323.251 239.009C324.494 233.038 328.822 233.038 333.617 233.331C334.926 233.414 336.258 233.477 337.545 233.706C346.846 235.335 347.467 235.439 346.002 244.186C342.628 264.477 335.858 283.515 320.476 298.942C308.512 310.945 295.06 320.778 277.658 324.66C252.908 330.172 230.001 325.913 209.202 312.24C198.326 305.1 190.845 295.393 186.295 283.599C182.322 273.307 178.637 262.995 179.192 251.179H179.17ZM181.389 252.494C181.589 263.057 184.519 273.077 188.825 282.743C191.489 288.755 193.975 294.976 198.836 299.819C216.416 317.333 237.614 325.955 263.607 324.326C278.302 323.408 290.843 318.252 302.585 310.59C309.133 306.311 314.638 301.029 319.988 295.414C334.371 280.363 340.364 262.222 343.383 242.808C344.049 238.591 342.917 236.044 337.545 236.003C334.971 236.003 332.351 235.084 331.241 237.923C330.198 240.574 328.644 243.518 331.885 246.086C333.128 247.067 335.681 248.069 333.905 250.073C332.107 252.118 330.331 250.198 328.8 249.154C324.383 246.148 320.631 247.526 319.81 252.494C319.588 253.809 319.943 255.626 317.679 255.479C316.059 255.375 315.859 253.976 315.593 252.703C314.239 246.127 311.109 244.812 305.338 248.403C303.984 249.238 302.585 249.864 301.342 248.549C300.321 247.484 300.765 246.19 301.675 245.146C302.408 244.311 303.162 243.434 304.05 242.766C306.336 241.034 306.536 239.03 305.626 236.525C304.649 233.832 302.452 233.56 300.077 233.602C290.643 233.727 281.209 233.372 271.798 232.663C269.112 232.454 267.136 232.621 267.447 228.926C267.758 225.168 263.563 221.494 260.033 221.432C256.748 221.39 252.287 224.876 252.531 228.279C252.819 232.475 250.2 232.454 247.315 232.579C241.677 232.871 236.083 232.308 230.489 231.723C228.802 231.556 225.828 231.18 225.828 233.143C225.828 237.506 221.522 241.994 226.072 246.336C227.026 247.255 227.803 248.945 226.316 250.114C224.807 251.283 223.63 250.052 222.476 249.133C219.435 246.691 213.109 248.737 212.376 252.473C212.044 254.164 212.221 256.294 209.646 256.085C207.293 255.876 207.959 253.914 207.915 252.39C207.759 248.173 202.943 248.382 200.79 246.023C199.813 244.958 198.725 245.939 197.793 246.67C196.106 247.985 194.153 250.845 192.133 248.57C190.179 246.399 193.376 244.582 194.819 242.85C195.107 242.495 195.684 242.328 195.951 241.952C197.86 239.238 197.682 236.024 196.639 233.414C195.374 230.22 191.711 232.036 189.092 231.723C185.895 231.347 184.83 233.456 184.142 235.898C182.588 241.326 181.079 246.754 181.434 252.473H181.389V252.494Z" fill="#027788"/>
<path d="M280.965 101.127C286.248 101.44 291.576 100.522 296.836 101.628C300.699 102.442 302.785 104.112 301.076 108.225C299.988 110.834 299.411 113.61 298.457 116.262C297.547 118.787 298.168 120.416 300.943 121.397C303.273 122.211 305.493 123.359 306.98 125.363C309.622 128.933 309.755 136.177 302.807 137.805C302.497 137.888 302.164 137.972 301.853 138.055C295.393 140.08 292.108 144.443 291.953 151.123C291.82 156.906 291.132 157.553 285.027 157.637C283.873 157.637 282.697 157.532 281.543 157.657C277.259 158.138 273.729 158.472 275.416 152.313C276.171 149.579 274.151 146.844 270.444 146.468C266.737 146.092 262.142 149.078 262.387 152.543C262.742 157.47 260.145 157.991 256.149 157.637C255.328 157.553 254.484 157.637 253.663 157.637C244.363 157.637 242.942 156.05 245.206 147.449C245.939 144.652 245.162 143.587 242.276 143.608C237.992 143.65 234.773 142.398 233.997 137.93C233.064 132.523 234.84 128.495 239.324 126.386C240.922 125.635 242.831 124.633 244.451 124.8C250.112 125.426 250.112 122.274 249.845 118.558C249.601 115.134 249.934 111.648 249.379 108.287C248.78 104.697 250.445 103.507 253.774 102.985C262.786 101.586 271.82 100.647 280.965 101.127ZM283.807 155.403C289.911 156.802 289.733 151.833 289.356 148.89C288.313 140.686 291.309 136.49 300.255 135.926C303.074 135.738 305.382 134.089 305.582 130.707C305.804 127.117 303.74 125.551 300.81 123.839C298.701 122.608 294.639 124.633 294.461 120.979C294.35 118.62 295.682 116.199 296.437 113.819C296.77 112.775 297.28 111.794 297.658 110.75C299.788 104.801 299.345 103.736 292.863 103.507C280.632 103.068 268.402 103.047 256.238 105.01C253.086 105.511 251.998 106.638 252.065 109.519C252.198 114.362 252.065 119.205 252.065 124.048C252.065 126.553 251.133 127.826 248.158 127.388C244.562 126.845 241.211 127.764 238.48 130.06C235.972 132.169 235.661 134.903 236.771 137.784C237.726 140.226 239.501 141.521 242.454 141.437C249.068 141.228 249.046 141.27 247.781 147.783C247.492 149.307 247.293 150.852 247.204 152.397C247.137 153.503 247.315 154.777 248.647 155.111C251.732 155.862 254.928 155.841 257.992 155.194C260.344 154.693 259.501 152.355 260.011 150.831C261.321 146.886 265.783 143.546 269.512 143.796C274.262 144.109 277.458 146.698 277.813 151.562C278.102 155.486 280.388 155.737 283.762 155.465L283.807 155.403Z" fill="#027788"/>
<path d="M349.753 211.077C350.375 214.877 348.421 219.323 347.666 223.916C347.156 227.026 345.269 228.195 342.139 227.84C340.341 227.631 338.544 227.339 336.768 226.984C331.662 225.94 327.401 224.834 323.627 230.763C320.253 236.065 311.796 233.831 310.043 227.089C308.666 221.849 305.625 220.242 300.809 219.323C295.614 218.363 290.576 216.693 285.382 215.858C282.052 215.315 281.786 214.083 282.607 211.432C284.094 206.652 285.559 201.85 286.492 196.965C287.113 193.73 288.889 192.853 291.952 192.937C293.772 192.999 295.614 193.041 297.412 192.853C302.695 192.31 304.649 188.01 301.297 184.127C299.965 182.582 298.323 181.121 296.502 180.119C292.951 178.199 293.195 175.798 294.993 173.063C296.303 171.08 297.967 169.306 299.166 167.26C303.339 160.12 303.317 160.225 311.263 163.607C320.187 167.406 328.843 171.56 336.102 177.864C346.09 186.549 350.508 197.341 349.775 211.056L349.753 211.077ZM347.555 210.305C347.289 200.66 345.047 192.895 339.986 185.86C333.882 177.343 324.826 172.646 315.414 168.304C307.978 164.88 302.229 166.467 298.167 173.084C296.858 175.213 296.169 176.904 299.321 178.303C301.785 179.388 303.139 181.768 304.36 183.96C307.579 189.722 304.515 194.669 297.59 195.087C295.947 195.191 294.283 195.128 292.618 195.191C290.776 195.233 289.533 195.943 289.066 197.8C288.09 201.746 287.157 205.712 285.848 209.553C284.871 212.434 286.025 213.415 288.8 214.042C294.904 215.419 300.942 217.089 307.046 218.446C310.42 219.198 312.662 220.137 312.062 224.208C311.596 227.423 313.749 229.928 317.123 230.867C319.942 231.639 322.806 230.053 323.117 227.903C324.182 220.68 328.91 223.206 333.15 223.978C335.747 224.458 338.366 224.834 340.941 225.377C343.138 225.857 344.914 225.126 345.003 223.143C345.225 218.342 348.954 214.083 347.578 210.305H347.555Z" fill="#027788"/>
<path d="M184.121 216.276C185.653 196.778 191.269 177.656 208.471 163.127C210.18 161.687 211.978 160.288 213.887 159.056C220.236 154.944 220.458 155.006 223.521 161.854C225.452 166.154 227.139 170.559 229.07 174.859C230.202 177.385 230.424 179.285 227.094 180.391C225.186 181.038 223.876 182.583 222.744 184.128C220.99 186.528 220.613 189.179 222.677 191.497C224.475 193.542 227.25 194.524 229.825 193.334C234.331 191.267 235.463 193.208 236.528 196.945C239.303 206.84 239.458 206.798 228.67 208.218C227.694 208.343 226.695 208.385 225.718 208.594C218.882 210.117 218.815 210.138 220.435 216.589C221.368 220.284 220.702 223.749 217.528 225.857C213.998 228.216 209.781 229.344 205.364 227.444C203.566 226.672 202.278 225.315 202.256 223.519C202.189 219.261 200.081 219.971 197.24 221.307C194.887 222.413 192.378 223.311 189.848 224.02C184.743 225.44 184.232 225.002 184.143 219.845V216.234V216.276H184.121ZM228.204 196.027C225.341 196.027 221.168 195.484 219.614 191.705C218.016 187.864 217.816 182.75 222.056 180.662C228.537 177.468 226.096 173.92 224.164 169.87C223.01 167.469 221.878 165.027 220.946 162.542C219.903 159.787 218.593 159.369 215.796 160.977C208.227 165.34 203.055 171.707 198.438 178.575C190.536 190.348 187.539 203.5 186.496 217.152C186.141 221.954 187.051 222.371 191.89 220.66C194.531 219.72 197.084 218.635 199.703 217.633C202.567 216.526 204.187 216.735 204.476 220.346C204.853 225.127 207.073 226.484 211.668 225.607C217.417 224.521 219.658 220.033 216.662 214.376C214.464 210.222 215.508 208.614 220.147 207.633C224.497 206.736 228.737 205.379 233.221 205.107C234.153 205.045 235.263 205.295 235.707 204.105C236.839 201.099 232.688 195.797 228.182 196.006L228.204 196.027Z" fill="#027788"/>
<path d="M253.042 290.696C244.319 290.738 237.171 282.367 238.925 274.33C239.347 272.388 240.523 271.741 242.387 271.741C244.363 271.741 246.561 271.449 247.049 274.058C247.826 278.108 249.357 282.492 254.174 282.388C258.88 282.283 260.212 277.774 261.211 273.871C261.721 271.887 262.809 270.405 265.428 271.094C267.936 271.762 270.089 272.555 269.912 275.728C269.379 284.642 262.653 290.654 253.02 290.696H253.042Z" fill="#027788"/>
<path d="M357.17 150.179C356.393 144.438 358.435 138.468 360.211 132.456C361.032 129.659 362.63 128.323 365.871 128.448C369.822 128.594 373.773 128.531 377.746 127.78C381.942 127.007 383.207 128.552 383.096 133.855C383.029 137.048 384.228 139.512 387.491 140.389C390.532 141.182 392.929 139.7 394.705 137.341C395.77 135.921 395.282 134.397 395.127 132.832C394.749 128.803 396.436 127.529 400.676 127.863C408.534 128.469 416.436 128.865 424.316 129.366C426.558 129.512 427.445 128.573 427.912 126.465C429.11 121.1 433.194 117.676 437.922 117.655C442.229 117.655 446.424 120.62 447.645 125.671C448.444 128.991 450.286 129.095 453.172 129.533C464.026 131.183 475.014 129.533 485.868 131.183C489.309 131.704 491.062 132.727 490.907 136.067C490.774 139.053 492.483 140.723 495.457 141.328C498.498 141.954 500.807 140.159 501.251 138.009C502.494 132.038 506.822 132.038 511.617 132.331C512.926 132.414 514.258 132.477 515.545 132.706C524.846 134.335 525.467 134.439 524.002 143.186C520.628 163.477 513.858 182.515 498.476 197.942C486.512 209.945 473.06 219.778 455.658 223.66C430.908 229.172 408.001 224.913 387.202 211.24C376.326 204.1 368.845 194.393 364.295 182.599C360.322 172.307 356.637 161.995 357.192 150.179H357.17ZM359.389 151.494C359.589 162.057 362.519 172.077 366.825 181.743C369.489 187.755 371.975 193.976 376.836 198.819C394.416 216.333 415.614 224.955 441.607 223.326C456.302 222.408 468.843 217.252 480.585 209.59C487.133 205.311 492.638 200.029 497.988 194.414C512.371 179.363 518.364 161.222 521.383 141.808C522.049 137.591 520.917 135.044 515.545 135.003C512.971 135.003 510.351 134.084 509.241 136.923C508.198 139.574 506.644 142.518 509.885 145.086C511.128 146.067 513.681 147.069 511.905 149.073C510.107 151.118 508.331 149.198 506.8 148.154C502.383 145.148 498.631 146.526 497.81 151.494C497.588 152.809 497.943 154.626 495.679 154.479C494.059 154.375 493.859 152.976 493.593 151.703C492.239 145.127 489.109 143.812 483.338 147.403C481.984 148.238 480.585 148.864 479.342 147.549C478.321 146.484 478.765 145.19 479.675 144.146C480.408 143.311 481.162 142.434 482.05 141.766C484.336 140.034 484.536 138.03 483.626 135.525C482.649 132.832 480.452 132.56 478.077 132.602C468.643 132.727 459.209 132.372 449.798 131.663C447.112 131.454 445.136 131.621 445.447 127.926C445.758 124.168 441.563 120.494 438.033 120.432C434.748 120.39 430.287 123.876 430.531 127.279C430.819 131.475 428.2 131.454 425.315 131.579C419.677 131.871 414.083 131.308 408.489 130.723C406.802 130.556 403.828 130.18 403.828 132.143C403.828 136.506 399.522 140.994 404.072 145.336C405.026 146.255 405.803 147.945 404.316 149.114C402.807 150.283 401.63 149.052 400.476 148.133C397.435 145.691 391.109 147.737 390.376 151.473C390.044 153.164 390.221 155.294 387.646 155.085C385.293 154.876 385.959 152.914 385.915 151.39C385.759 147.173 380.943 147.382 378.79 145.023C377.813 143.958 376.725 144.939 375.793 145.67C374.106 146.985 372.153 149.845 370.133 147.57C368.179 145.399 371.376 143.582 372.819 141.85C373.107 141.495 373.684 141.328 373.951 140.952C375.86 138.238 375.682 135.024 374.639 132.414C373.374 129.22 369.711 131.036 367.092 130.723C363.895 130.347 362.83 132.456 362.142 134.898C360.588 140.326 359.079 145.754 359.434 151.473H359.389V151.494Z" fill="#027788"/>
<path d="M458.965 0.126895C464.248 0.440025 469.576 -0.478491 474.836 0.627904C478.699 1.44204 480.785 3.11207 479.076 7.22452C477.988 9.83394 477.411 12.6104 476.457 15.2615C475.547 17.7875 476.168 19.4157 478.943 20.3969C481.273 21.211 483.493 22.3592 484.98 24.3632C487.622 27.9329 487.755 35.1766 480.807 36.8049C480.497 36.8884 480.164 36.9719 479.853 37.0554C473.393 39.0803 470.108 43.4433 469.953 50.1234C469.82 55.9059 469.132 56.553 463.027 56.6365C461.873 56.6365 460.697 56.5321 459.543 56.6574C455.259 57.1375 451.729 57.4715 453.416 51.3133C454.171 48.5786 452.151 45.844 448.444 45.4682C444.737 45.0924 440.142 48.0776 440.387 51.5429C440.742 56.4695 438.145 56.9914 434.149 56.6365C433.328 56.553 432.484 56.6365 431.663 56.6365C422.363 56.6365 420.942 55.05 423.206 46.4493C423.939 43.652 423.162 42.5874 420.276 42.6083C415.992 42.65 412.773 41.3975 411.997 36.9302C411.064 31.5235 412.84 27.4945 417.324 25.3861C418.922 24.6346 420.831 23.6326 422.451 23.7996C428.112 24.4258 428.112 21.2736 427.845 17.5578C427.601 14.1343 427.934 10.6481 427.379 7.28715C426.78 3.69658 428.445 2.50669 431.774 1.9848C440.786 0.586153 449.82 -0.353239 458.965 0.126895ZM461.807 54.4029C467.911 55.8015 467.733 50.8332 467.356 47.8897C466.313 39.6857 469.309 35.4898 478.255 34.9261C481.074 34.7383 483.382 33.0891 483.582 29.7073C483.804 26.1167 481.74 24.5511 478.81 22.8393C476.701 21.6077 472.639 23.6326 472.461 19.9794C472.35 17.6205 473.682 15.1989 474.437 12.8191C474.77 11.7754 475.28 10.7942 475.658 9.75044C477.788 3.80096 477.345 2.73632 470.863 2.50669C458.632 2.0683 446.402 2.04743 434.238 4.00971C431.086 4.51072 429.998 5.63799 430.065 8.51879C430.198 13.3619 430.065 18.205 430.065 23.0481C430.065 25.5531 429.133 26.8265 426.158 26.3881C422.562 25.8454 419.211 26.7639 416.48 29.0602C413.972 31.1686 413.661 33.9032 414.771 36.784C415.726 39.2265 417.501 40.5207 420.454 40.4372C427.068 40.2285 427.046 40.2702 425.781 46.7834C425.492 48.3073 425.293 49.852 425.204 51.3968C425.137 52.5032 425.315 53.7766 426.647 54.1106C429.732 54.8621 432.928 54.8412 435.992 54.1941C438.344 53.6931 437.501 51.3551 438.011 49.8312C439.321 45.8857 443.783 42.5457 447.512 42.7962C452.262 43.1093 455.458 45.6978 455.813 50.5618C456.102 54.4864 458.388 54.7369 461.762 54.4655L461.807 54.4029Z" fill="#027788"/>
<path d="M527.753 110.077C528.375 113.877 526.421 118.323 525.666 122.916C525.156 126.026 523.269 127.195 520.139 126.84C518.341 126.631 516.544 126.339 514.768 125.984C509.662 124.94 505.401 123.834 501.627 129.763C498.253 135.065 489.796 132.831 488.043 126.089C486.666 120.849 483.625 119.242 478.809 118.323C473.614 117.363 468.576 115.693 463.382 114.858C460.052 114.315 459.786 113.083 460.607 110.432C462.094 105.652 463.559 100.85 464.492 95.9655C465.113 92.7298 466.889 91.853 469.952 91.9365C471.772 91.9991 473.614 92.0409 475.412 91.853C480.695 91.3103 482.649 87.0099 479.297 83.1271C477.965 81.5823 476.323 80.1211 474.502 79.119C470.951 77.1985 471.195 74.7978 472.993 72.0632C474.303 70.08 475.967 68.3056 477.166 66.2598C481.339 59.1204 481.317 59.2248 489.263 62.6066C498.187 66.4059 506.843 70.5601 514.102 76.8645C524.09 85.5487 528.508 96.3412 527.775 110.056L527.753 110.077ZM525.555 109.305C525.289 99.6604 523.047 91.8948 517.986 84.8598C511.882 76.3426 502.826 71.6457 493.414 67.3036C485.978 63.88 480.229 65.4665 476.167 72.084C474.858 74.2133 474.169 75.9042 477.321 77.3029C479.785 78.3884 481.139 80.7682 482.36 82.9601C485.579 88.7217 482.515 93.6692 475.59 94.0867C473.947 94.1911 472.283 94.1284 470.618 94.1911C468.776 94.2328 467.533 94.9426 467.066 96.8005C466.09 100.746 465.157 104.712 463.848 108.553C462.871 111.434 464.025 112.415 466.8 113.042C472.904 114.419 478.942 116.089 485.046 117.446C488.42 118.198 490.662 119.137 490.062 123.208C489.596 126.423 491.749 128.928 495.123 129.867C497.942 130.639 500.806 129.053 501.117 126.903C502.182 119.68 506.91 122.206 511.15 122.978C513.747 123.458 516.366 123.834 518.941 124.377C521.138 124.857 522.914 124.126 523.003 122.143C523.225 117.342 526.954 113.083 525.578 109.305H525.555Z" fill="#027788"/>
<path d="M362.121 115.276C363.653 95.7781 369.269 76.6563 386.471 62.127C388.18 60.6866 389.978 59.288 391.887 58.0563C398.236 53.9439 398.458 54.0065 401.521 60.8536C403.452 65.1539 405.139 69.5586 407.07 73.859C408.202 76.3849 408.424 78.2845 405.094 79.3909C403.186 80.0381 401.876 81.5829 400.744 83.1276C398.99 85.5283 398.613 88.1795 400.677 90.4966C402.475 92.5424 405.25 93.5236 407.825 92.3337C412.331 90.267 413.463 92.2084 414.528 95.9451C417.303 105.84 417.458 105.798 406.67 107.218C405.694 107.343 404.695 107.385 403.718 107.594C396.882 109.117 396.815 109.138 398.435 115.589C399.368 119.284 398.702 122.749 395.528 124.857C391.998 127.216 387.781 128.344 383.364 126.444C381.566 125.672 380.278 124.315 380.256 122.519C380.189 118.261 378.081 118.971 375.24 120.307C372.887 121.413 370.378 122.311 367.848 123.02C362.743 124.44 362.232 124.002 362.143 118.845V115.234V115.276H362.121ZM406.204 95.0266C403.341 95.0266 399.168 94.4838 397.614 90.7054C396.016 86.8643 395.816 81.7499 400.056 79.6623C406.537 76.4684 404.096 72.9196 402.164 68.8698C401.01 66.4691 399.878 64.0267 398.946 61.5425C397.903 58.7869 396.593 58.3694 393.796 59.9768C386.227 64.3398 381.055 70.7068 376.438 77.5748C368.536 89.3485 365.539 102.5 364.496 116.152C364.141 120.954 365.051 121.371 369.89 119.66C372.531 118.72 375.084 117.635 377.703 116.633C380.567 115.526 382.187 115.735 382.476 119.346C382.853 124.127 385.073 125.484 389.668 124.607C395.417 123.521 397.658 119.033 394.662 113.376C392.464 109.222 393.508 107.614 398.147 106.633C402.497 105.736 406.737 104.379 411.221 104.107C412.153 104.045 413.263 104.295 413.707 103.105C414.839 100.099 410.688 94.797 406.182 95.0057L406.204 95.0266Z" fill="#027788"/>
<path d="M431.042 189.696C422.319 189.738 415.171 181.367 416.925 173.33C417.347 171.388 418.523 170.741 420.387 170.741C422.363 170.741 424.561 170.449 425.049 173.058C425.826 177.108 427.357 181.492 432.174 181.388C436.88 181.283 438.212 176.774 439.211 172.871C439.721 170.887 440.809 169.405 443.428 170.094C445.936 170.762 448.089 171.555 447.912 174.728C447.379 183.642 440.653 189.654 431.02 189.696H431.042Z" fill="#027788"/>
</svg>
